# xmcd
#
# Track frame offsets:
# 150
# 17627
# 38780
# 56713
# 82591
# 105699
# 122501
# 142753
# 160981
# 188214
# 202692
# 219362
# 238114
# 257323
#
# Disc length: 3626 seconds
#
# Revision: 0
# Processed by: cddbd v1.5PL3 Copyright (c) Steve Scherf et al.
# Submitted via: Audion 3.0.2 (http://www.panic.com/audion/)
#
DISCID=a80e280e
DTITLE=Mixed - Ljud CD #4
DYEAR=1900
DGENRE=
TTITLE0=Macarena
TTITLE1=Bladerunner Theme
TTITLE2=Går Och Fiskar
TTITLE3=Radio Ga Ga
TTITLE4=Mr Blue Sky
TTITLE5=Down Under
TTITLE6=Dreadlock Holiday
TTITLE7=Be My Lover
TTITLE8=Hotel California
TTITLE9=Lemon Tree
TTITLE10=Living On My Own
TTITLE11=Return To Innosence
TTITLE12=Sharp Dressed Man
TTITLE13=Vandraren
EXTD=
EXTT0=
EXTT1=
EXTT2=
EXTT3=
EXTT4=
EXTT5=
EXTT6=
EXTT7=
EXTT8=
EXTT9=
EXTT10=
EXTT11=
EXTT12=
EXTT13=
PLAYORDER=
